<svg version="1.1" viewBox="0.0 0.0 960.0 720.0" fill="none" stroke="none" stroke-linecap="square" stroke-miterlimit="10" xmlns:xlink="http://www.w3.org/1999/xlink" xmlns="http://www.w3.org/2000/svg"><clipPath id="p.0"><path d="m0 0l960.0 0l0 720.0l-960.0 0l0 -720.0z" clip-rule="nonzero"/></clipPath><g clip-path="url(#p.0)"><path fill="#000000" fill-opacity="0.0" d="m0 0l960.0 0l0 720.0l-960.0 0z" fill-rule="evenodd"/><path fill="#cfe2f3" d="m124.69292 136.80612l0 0c0 -9.503548 7.7041473 -17.207695 17.207687 -17.207695l208.26178 0c4.563751 0 8.940613 1.8129501 12.167664 5.040016c3.2270813 3.227066 5.040039 7.6039124 5.040039 12.167679l0 68.828705c0 9.50354 -7.7041626 17.207687 -17.207703 17.207687l-208.26178 0c-9.50354 0 -17.207687 -7.7041473 -17.207687 -17.207687z" fill-rule="evenodd"/><path stroke="#000000" stroke-width="1.0" stroke-linejoin="round" stroke-linecap="butt" d="m124.69292 136.80612l0 0c0 -9.503548 7.7041473 -17.207695 17.207687 -17.207695l208.26178 0c4.563751 0 8.940613 1.8129501 12.167664 5.040016c3.2270813 3.227066 5.040039 7.6039124 5.040039 12.167679l0 68.828705c0 9.50354 -7.7041626 17.207687 -17.207703 17.207687l-208.26178 0c-9.50354 0 -17.207687 -7.7041473 -17.207687 -17.207687z" fill-rule="evenodd"/><path fill="#c400c4" d="m293.61942 171.22047l0 0c0 -12.959122 11.104767 -23.46457 24.803162 -23.46457l0 0c6.578186 0 12.886963 2.4721527 17.538483 6.8726196c4.6514893 4.4004517 7.2646484 10.368759 7.2646484 16.59195l0 0c0 12.959122 -11.104736 23.46457 -24.803131 23.46457l0 0c-13.698395 0 -24.803162 -10.505447 -24.803162 -23.46457z" fill-rule="evenodd"/><path stroke="#000000" stroke-width="1.0" stroke-linejoin="round" stroke-linecap="butt" d="m293.61942 171.22047l0 0c0 -12.959122 11.104767 -23.46457 24.803162 -23.46457l0 0c6.578186 0 12.886963 2.4721527 17.538483 6.8726196c4.6514893 4.4004517 7.2646484 10.368759 7.2646484 16.59195l0 0c0 12.959122 -11.104736 23.46457 -24.803131 23.46457l0 0c-13.698395 0 -24.803162 -10.505447 -24.803162 -23.46457z" fill-rule="evenodd"/><path fill="#cfe2f3" d="m142.12335 152.90045l0 0c0 -5.0590973 4.1012115 -9.160294 9.160294 -9.160294l67.506195 0c2.4294586 0 4.7594147 0.96510315 6.47731 2.6829834c1.7178802 1.7178955 2.6829834 4.0478516 2.6829834 6.47731l0 36.640045c0 5.0590973 -4.1011963 9.160294 -9.160294 9.160294l-67.506195 0c-5.059082 0 -9.160294 -4.1011963 -9.160294 -9.160294z" fill-rule="evenodd"/><path stroke="#000000" stroke-width="1.0" stroke-linejoin="round" stroke-linecap="butt" d="m142.12335 152.90045l0 0c0 -5.0590973 4.1012115 -9.160294 9.160294 -9.160294l67.506195 0c2.4294586 0 4.7594147 0.96510315 6.47731 2.6829834c1.7178802 1.7178955 2.6829834 4.0478516 2.6829834 6.47731l0 36.640045c0 5.0590973 -4.1011963 9.160294 -9.160294 9.160294l-67.506195 0c-5.059082 0 -9.160294 -4.1011963 -9.160294 -9.160294z" fill-rule="evenodd"/><path fill="#000000" fill-opacity="0.0" d="m227.95013 171.22047l65.66928 0" fill-rule="evenodd"/><path stroke="#000000" stroke-width="1.0" stroke-linejoin="round" stroke-linecap="butt" d="m227.95013 171.22047l59.66928 0" fill-rule="evenodd"/><path fill="#000000" stroke="#000000" stroke-width="1.0" stroke-linecap="butt" d="m287.61942 172.87221l4.5381165 -1.6517334l-4.5381165 -1.6517334z" fill-rule="evenodd"/><path fill="#cfe2f3" d="m124.69292 329.11847l0 0c0 -9.503571 7.7041473 -17.207703 17.207687 -17.207703l208.26178 0c4.563751 0 8.940613 1.8129578 12.167664 5.0400085c3.2270813 3.2270813 5.040039 7.6039124 5.040039 12.167694l0 68.828705c0 9.50354 -7.7041626 17.207672 -17.207703 17.207672l-208.26178 0c-9.50354 0 -17.207687 -7.704132 -17.207687 -17.207672z" fill-rule="evenodd"/><path stroke="#000000" stroke-width="1.0" stroke-linejoin="round" stroke-linecap="butt" d="m124.69292 329.11847l0 0c0 -9.503571 7.7041473 -17.207703 17.207687 -17.207703l208.26178 0c4.563751 0 8.940613 1.8129578 12.167664 5.0400085c3.2270813 3.2270813 5.040039 7.6039124 5.040039 12.167694l0 68.828705c0 9.50354 -7.7041626 17.207672 -17.207703 17.207672l-208.26178 0c-9.50354 0 -17.207687 -7.704132 -17.207687 -17.207672z" fill-rule="evenodd"/><path fill="#c400c4" d="m293.61942 363.5328l0 0c0 -12.959106 11.104767 -23.46457 24.803162 -23.46457l0 0c6.578186 0 12.886963 2.472168 17.538483 6.8726196c4.6514893 4.4004517 7.2646484 10.368774 7.2646484 16.59195l0 0c0 12.959137 -11.104736 23.46457 -24.803131 23.46457l0 0c-13.698395 0 -24.803162 -10.505432 -24.803162 -23.46457z" fill-rule="evenodd"/><path stroke="#000000" stroke-width="1.0" stroke-linejoin="round" stroke-linecap="butt" d="m293.61942 363.5328l0 0c0 -12.959106 11.104767 -23.46457 24.803162 -23.46457l0 0c6.578186 0 12.886963 2.472168 17.538483 6.8726196c4.6514893 4.4004517 7.2646484 10.368774 7.2646484 16.59195l0 0c0 12.959137 -11.104736 23.46457 -24.803131 23.46457l0 0c-13.698395 0 -24.803162 -10.505432 -24.803162 -23.46457z" fill-rule="evenodd"/><path fill="#cfe2f3" d="m142.12335 345.21277l0 0c0 -5.059082 4.1012115 -9.160278 9.160294 -9.160278l67.506195 0c2.4294586 0 4.7594147 0.9650879 6.47731 2.6829834c1.7178802 1.7178955 2.6829834 4.0478516 2.6829834 6.477295l0 36.640076c0 5.059082 -4.1011963 9.160278 -9.160294 9.160278l-67.506195 0c-5.059082 0 -9.160294 -4.1011963 -9.160294 -9.160278z" fill-rule="evenodd"/><path stroke="#000000" stroke-width="1.0" stroke-linejoin="round" stroke-linecap="butt" d="m142.12335 345.21277l0 0c0 -5.059082 4.1012115 -9.160278 9.160294 -9.160278l67.506195 0c2.4294586 0 4.7594147 0.9650879 6.47731 2.6829834c1.7178802 1.7178955 2.6829834 4.0478516 2.6829834 6.477295l0 36.640076c0 5.059082 -4.1011963 9.160278 -9.160294 9.160278l-67.506195 0c-5.059082 0 -9.160294 -4.1011963 -9.160294 -9.160278z" fill-rule="evenodd"/><path fill="#000000" fill-opacity="0.0" d="m227.95013 363.5328l65.66928 0" fill-rule="evenodd"/><path stroke="#000000" stroke-width="1.0" stroke-linejoin="round" stroke-linecap="butt" d="m227.95013 363.5328l59.66928 0" fill-rule="evenodd"/><path fill="#000000" stroke="#000000" stroke-width="1.0" stroke-linecap="butt" d="m287.61942 365.18454l4.5381165 -1.6517334l-4.5381165 -1.6517334z" fill-rule="evenodd"/><path fill="#cfe2f3" d="m131.21785 521.4308l0 0c0 -9.50354 7.7041473 -17.207703 17.207687 -17.207703l208.26178 0c4.5637817 0 8.940613 1.8129578 12.167694 5.040039c3.2270508 3.2270508 5.0400085 7.603882 5.0400085 12.167664l0 68.828735c0 9.50354 -7.7041626 17.207642 -17.207703 17.207642l-208.26178 0c-9.50354 0 -17.207687 -7.7041016 -17.207687 -17.207642z" fill-rule="evenodd"/><path stroke="#000000" stroke-width="1.0" stroke-linejoin="round" stroke-linecap="butt" d="m131.21785 521.4308l0 0c0 -9.50354 7.7041473 -17.207703 17.207687 -17.207703l208.26178 0c4.5637817 0 8.940613 1.8129578 12.167694 5.040039c3.2270508 3.2270508 5.0400085 7.603882 5.0400085 12.167664l0 68.828735c0 9.50354 -7.7041626 17.207642 -17.207703 17.207642l-208.26178 0c-9.50354 0 -17.207687 -7.7041016 -17.207687 -17.207642z" fill-rule="evenodd"/><path fill="#c400c4" d="m300.14435 555.84515l0 0c0 -12.959106 11.104767 -23.4646 24.803162 -23.4646l0 0c6.578186 0 12.886993 2.472168 17.538483 6.8726196c4.6514893 4.4004517 7.264679 10.368774 7.264679 16.59198l0 0c0 12.959106 -11.104767 23.464539 -24.803162 23.464539l0 0c-13.698395 0 -24.803162 -10.505432 -24.803162 -23.464539z" fill-rule="evenodd"/><path stroke="#000000" stroke-width="1.0" stroke-linejoin="round" stroke-linecap="butt" d="m300.14435 555.84515l0 0c0 -12.959106 11.104767 -23.4646 24.803162 -23.4646l0 0c6.578186 0 12.886993 2.472168 17.538483 6.8726196c4.6514893 4.4004517 7.264679 10.368774 7.264679 16.59198l0 0c0 12.959106 -11.104767 23.464539 -24.803162 23.464539l0 0c-13.698395 0 -24.803162 -10.505432 -24.803162 -23.464539z" fill-rule="evenodd"/><path fill="#cfe2f3" d="m148.6483 537.52515l0 0c0 -5.059143 4.1011963 -9.160339 9.160278 -9.160339l67.506195 0c2.4294586 0 4.7594147 0.9651489 6.47731 2.6829834c1.7178802 1.7178955 2.6829834 4.0478516 2.6829834 6.477356l0 36.640015c0 5.059082 -4.1011963 9.160278 -9.160294 9.160278l-67.506195 0c-5.059082 0 -9.160278 -4.1011963 -9.160278 -9.160278z" fill-rule="evenodd"/><path stroke="#000000" stroke-width="1.0" stroke-linejoin="round" stroke-linecap="butt" d="m148.6483 537.52515l0 0c0 -5.059143 4.1011963 -9.160339 9.160278 -9.160339l67.506195 0c2.4294586 0 4.7594147 0.9651489 6.47731 2.6829834c1.7178802 1.7178955 2.6829834 4.0478516 2.6829834 6.477356l0 36.640015c0 5.059082 -4.1011963 9.160278 -9.160294 9.160278l-67.506195 0c-5.059082 0 -9.160278 -4.1011963 -9.160278 -9.160278z" fill-rule="evenodd"/><path fill="#000000" fill-opacity="0.0" d="m234.47507 555.84515l65.66928 0" fill-rule="evenodd"/><path stroke="#000000" stroke-width="1.0" stroke-linejoin="round" stroke-linecap="butt" d="m234.47507 555.84515l59.66928 0" fill-rule="evenodd"/><path fill="#000000" stroke="#000000" stroke-width="1.0" stroke-linecap="butt" d="m294.14435 557.4969l4.5381165 -1.6517334l-4.5381165 -1.6517334z" fill-rule="evenodd"/><path fill="#000000" fill-opacity="0.0" d="m343.2257 171.22047c51.62732 0 103.246735 48.078735 103.25461 96.157486c0.007873535 48.078735 -51.595795 96.15747 -103.19159 96.15747" fill-rule="evenodd"/><path stroke="#000000" stroke-width="1.0" stroke-linejoin="round" stroke-linecap="butt" d="m343.2257 171.22047c51.62732 0 103.246735 48.078735 103.25461 96.157486c0.007873535 48.078735 -51.595795 96.15747 -103.19159 96.15747" fill-rule="evenodd"/><path fill="#000000" fill-opacity="0.0" d="m343.2257 363.5328c55.649628 0 110.48428 48.078735 111.299255 96.15747c0.8149719 48.078766 -52.38977 96.1575 -104.77957 96.1575" fill-rule="evenodd"/><path stroke="#000000" stroke-width="1.0" stroke-linejoin="round" stroke-linecap="butt" d="m343.2257 363.5328c55.649628 0 110.48428 48.078735 111.299255 96.15747c0.8149719 48.078766 -52.38977 96.1575 -104.77957 96.1575" fill-rule="evenodd"/><path fill="#000000" fill-opacity="0.0" d="m75.178474 145.42783l0 0c0 -50.230377 40.719765 -90.950134 90.95014 -90.950134l363.80054 0l0 0c24.12146 0 47.255005 9.582214 64.31146 26.638672c17.056458 17.056465 26.638672 40.189987 26.638672 64.31146l0 436.21c0 50.230347 -40.719788 90.950134 -90.950134 90.950134l-363.80054 0c-50.230377 0 -90.95014 -40.719788 -90.95014 -90.950134z" fill-rule="evenodd"/><path stroke="#000000" stroke-width="1.0" stroke-linejoin="round" stroke-linecap="butt" d="m75.178474 145.42783l0 0c0 -50.230377 40.719765 -90.950134 90.95014 -90.950134l363.80054 0l0 0c24.12146 0 47.255005 9.582214 64.31146 26.638672c17.056458 17.056465 26.638672 40.189987 26.638672 64.31146l0 436.21c0 50.230347 -40.719788 90.950134 -90.950134 90.950134l-363.80054 0c-50.230377 0 -90.95014 -40.719788 -90.95014 -90.950134z" fill-rule="evenodd"/><path fill="#c400c4" d="m507.1601 171.22047l0 0c0 -13.767975 11.436157 -24.929138 25.543335 -24.929138l0 0c6.774475 0 13.271545 2.6264648 18.061829 7.3015747c4.790283 4.675125 7.4814453 11.015945 7.4814453 17.627563l0 0c0 13.767975 -11.436096 24.929138 -25.543274 24.929138l0 0c-14.107178 0 -25.543335 -11.161163 -25.543335 -24.929138z" fill-rule="evenodd"/><path stroke="#000000" stroke-width="1.0" stroke-linejoin="round" stroke-linecap="butt" d="m507.1601 171.22047l0 0c0 -13.767975 11.436157 -24.929138 25.543335 -24.929138l0 0c6.774475 0 13.271545 2.6264648 18.061829 7.3015747c4.790283 4.675125 7.4814453 11.015945 7.4814453 17.627563l0 0c0 13.767975 -11.436096 24.929138 -25.543274 24.929138l0 0c-14.107178 0 -25.543335 -11.161163 -25.543335 -24.929138z" fill-rule="evenodd"/><path fill="#000000" fill-opacity="0.0" d="m681.08136 171.50394l-122.834656 -0.28346252" fill-rule="evenodd"/><path stroke="#000000" stroke-width="1.0" stroke-linejoin="round" stroke-linecap="butt" d="m681.08136 171.50394l-116.834656 -0.2696228" fill-rule="evenodd"/><path fill="#000000" stroke="#000000" stroke-width="1.0" stroke-linecap="butt" d="m564.2505 169.5826l-4.54187 1.6412506l4.5343018 1.6622009z" fill-rule="evenodd"/><path fill="#000000" fill-opacity="0.0" d="m507.1601 171.22047l-164.18896 0.25196838" fill-rule="evenodd"/><path stroke="#000000" stroke-width="1.0" stroke-linejoin="round" stroke-linecap="butt" d="m507.1601 171.22047l-158.18896 0.24276733" fill-rule="evenodd"/><path fill="#000000" stroke="#000000" stroke-width="1.0" stroke-linecap="butt" d="m348.9686 169.81151l-4.535553 1.6586914l4.540619 1.6447601z" fill-rule="evenodd"/></g></svg>